PathFileType	4	(X/Y/Z)	D:\Share\Shared_Data\Ergonomics\Sit To Stand Pertubation\S2\Unperturbed.trc
DataRate	CameraRate	NumFrames	NumMarkers	Units	OrigDataRate	OrigDataStartFrame	OrigNumFrames	
100	100	10	18	m	100	2210	251
Frame#	Time	R_Toe			R_ASIS			R_Pelvis			V_Sacral			L_Pelvis			L_ASIS			Clavical			R_Acromium			L_Acromium			Sternum			Torso			R_Thigh_Med			R_Thigh_Lat			R_Thigh			R_Shank_Med			R_Shank_Lat			R_Shank			R_Heel			
		X1	Y1	Z1	X2	Y2	Z2	X3	Y3	Z3	X4	Y4	Z4	X5	Y5	Z5	X6	Y6	Z6	X7	Y7	Z7	X8	Y8	Z8	X9	Y9	Z9	X10	Y10	Z10	X11	Y11	Z11	X12	Y12	Z12	X13	Y13	Z13	X14	Y14	Z14	X15	Y15	Z15	X16	Y16	Z16	X17	Y17	Z17	X18	Y18	Z18	

2210	22.09	0.44547855	0.064250763	0.14435027	0.47755997	1.0242527	0.15214946	0.40288821	1.0254891	0.19388	0.26213922	1.0271305	0.030658047	0.36078616	1.0372306	-0.14860425	0.45632864	1.042777	-0.12143917	0.45502112	1.4560768	0.021784935	0.3563212	1.4692236	0.23003952	0.33575427	1.4891613	-0.15735208	0.51125116	1.3010322	0.010221225	0.46032477	1.4210934	-0.09678672	0.35957623	0.49371967	0.090548706	0.35090695	0.51769897	0.1799984	0.45887555	0.67269373	0.15881689	0.31286716	0.10679684	0.098923119	0.2856459	0.1019232	0.18849847	0.3116312	0.37459497	0.21077663	0.20830748	0.061976795	0.13802812
2211	22.1	0.44548746	0.064240311	0.14434117	0.47782803	1.0241699	0.15185638	0.40313867	1.0254058	0.19355609	0.26239142	1.0270353	0.030391943	0.36102148	1.0371055	-0.14893953	0.45656223	1.0426637	-0.12175101	0.45516467	1.4559739	0.021378716	0.35661667	1.4692197	0.22969136	0.33581857	1.4890179	-0.15769244	0.51136667	1.3009211	0.0098289795	0.4603905	1.4209467	-0.097190933	0.35961768	0.49369348	0.090387619	0.35097086	0.51769128	0.17983893	0.45899011	0.67263208	0.15863812	0.31288083	0.10677238	0.098868698	0.2856593	0.1019493	0.1884481	0.31167325	0.3746239	0.21066844	0.20832965	0.06199535	0.13800951
2212	22.11	0.4454967	0.06422995	0.14433261	0.47808337	1.0240823	0.15156549	0.40337012	1.0253196	0.19322879	0.26263675	1.0269594	0.030121656	0.36125903	1.0369791	-0.14927774	0.4567973	1.042535	-0.12206122	0.45531046	1.455869	0.02096611	0.35688425	1.4692086	0.22933044	0.33589441	1.4888535	-0.15804759	0.51147891	1.300802	0.0094408417	0.46046817	1.4207881	-0.097601578	0.35963226	0.49366745	0.090231636	0.35101852	0.51768689	0.17968396	0.45909116	0.6725647	0.15844772	0.31289212	0.10674536	0.098814575	0.28567038	0.10197414	0.18840161	0.311703	0.37465314	0.21056439	0.20835051	0.062011871	0.13799088
2213	22.12	0.4455065	0.064219856	0.1443241	0.47832736	1.0239932	0.15127599	0.4035853	1.0252344	0.19289734	0.26287396	1.0269083	0.029848751	0.36149356	1.0368591	-0.14961443	0.45702676	1.0423978	-0.12236974	0.4554588	1.4557679	0.020546854	0.35712094	1.4691948	0.22895467	0.33597995	1.4886785	-0.15841942	0.51158786	1.3006824	0.0090557413	0.46055594	1.4206263	-0.098017921	0.35962735	0.49364236	0.090079674	0.35105569	0.51768787	0.17953217	0.45918008	0.67249518	0.15824551	0.31290137	0.10671785	0.098761749	0.28567938	0.10199857	0.18835938	0.31172482	0.37468414	0.21046289	0.20836974	0.062027851	0.13797269
2214	22.13	0.445517	0.06421006	0.14431525	0.47856	1.0239066	0.15098705	0.40378732	1.0251541	0.19256107	0.26309998	1.026886	0.029575489	0.36171814	1.0367527	-0.14994394	0.45724399	1.0422604	-0.12267571	0.45561029	1.455676	0.020120907	0.357327	1.4691844	0.2285641	0.33607397	1.4885033	-0.15880875	0.51169342	1.3005697	0.00867208	0.46065173	1.4204697	-0.098439095	0.35961188	0.49361914	0.089930061	0.35108853	0.51769482	0.17938194	0.45925827	0.67242725	0.15803236	0.31290948	0.10669205	0.098711021	0.28568701	0.10202328	0.18832161	0.31174359	0.3747179	0.21036247	0.20838708	0.062044518	0.13795528
2215	22.14	0.44552805	0.0642005	0.14430577	0.47878027	1.0238257	0.15069762	0.4039791	1.025082	0.1922206	0.2633114	1.0268942	0.029304899	0.36192551	1.0366649	-0.15026086	0.45744351	1.0421311	-0.1229784	0.45576505	1.455597	0.019689016	0.35750583	1.4691846	0.22816142	0.33617551	1.4883391	-0.15921565	0.51179611	1.3004689	0.0082887945	0.46075427	1.420325	-0.098863747	0.35959488	0.49359863	0.089780823	0.35112289	0.51770789	0.17923148	0.45932718	0.67236292	0.1578102	0.31291745	0.10666988	0.098662773	0.28569415	0.10204888	0.18828793	0.31176407	0.37475452	0.21026161	0.2084024	0.062062851	0.13793881
2216	22.15	0.44553998	0.064190964	0.14429535	0.47898682	1.0237542	0.15040646	0.40416241	1.025021	0.19187843	0.26350555	1.0269332	0.029039965	0.36210889	1.0366002	-0.15056137	0.45762073	1.042017	-0.12327747	0.45592264	1.4555333	0.019252989	0.35766409	1.4692025	0.22775017	0.336284	1.4881945	-0.15963885	0.51189749	1.3003838	0.007905921	0.46086349	1.4201973	-0.099290321	0.3595842	0.49358145	0.089629967	0.35116354	0.51772601	0.17907907	0.45938809	0.67230347	0.15758229	0.31292642	0.10665243	0.098616692	0.28570193	0.10207588	0.1882574	0.31179019	0.37479367	0.21015843	0.20841565	0.062083668	0.13792305
2217	22.16	0.44555304	0.064181282	0.14428389	0.47917874	1.023694	0.1501127	0.40433636	1.0249719	0.19153807	0.2636803	1.0270011	0.028782545	0.36226337	1.0365609	-0.15084384	0.45777182	1.0419236	-0.12357255	0.45608194	1.4554863	0.018815434	0.35781119	1.4692445	0.22733203	0.33639993	1.4880756	-0.16007489	0.51199908	1.3003159	0.0075239868	0.46098013	1.4200902	-0.099717125	0.35958539	0.49356824	0.089476074	0.35121344	0.5177478	0.17892313	0.45944125	0.67224823	0.15735277	0.31293741	0.10663982	0.098571663	0.28571133	0.10210487	0.18822862	0.31182474	0.37483487	0.2100509	0.20842706	0.062107777	0.13790749
2218	22.17	0.44556754	0.064171539	0.14427135	0.47935574	1.0236474	0.14981664	0.40449756	1.0249348	0.19120282	0.26383432	1.0270939	0.028532709	0.36238684	1.0365472	-0.15110924	0.45789386	1.0418539	-0.12386351	0.45624182	1.4554563	0.018378851	0.35795782	1.4693153	0.22690712	0.3365249	1.4879865	-0.16051924	0.5121015	1.3002651	0.0071432104	0.46110495	1.4200052	-0.10014214	0.35960123	0.49355966	0.089318756	0.35127325	0.51777258	0.17876256	0.45948663	0.67219653	0.15712581	0.31295157	0.10663129	0.098526123	0.28572321	0.10213638	0.18820012	0.31186856	0.37487744	0.20993712	0.20843713	0.062136009	0.13789185
2219	22.18	0.44558371	0.064161987	0.14425777	0.47951852	1.0236155	0.14951959	0.40464163	1.0249078	0.190875	0.2639668	1.0272052	0.028288879	0.36247937	1.0365573	-0.15136055	0.45798541	1.0418085	-0.12415092	0.45640179	1.4554419	0.017944609	0.35811349	1.4694174	0.22647647	0.33666095	1.4879264	-0.16096762	0.51220435	1.3002292	0.0067635942	0.46123813	1.419941	-0.10056351	0.35963235	0.49355634	0.089158821	0.35134122	0.5177995	0.1785966	0.45952444	0.67214813	0.15690457	0.31296957	0.10662564	0.098478432	0.28573798	0.10217085	0.18817049	0.31192038	0.37492126	0.20981612	0.2084465	0.062168957	0.13787584
